<svg xmlns="http://www.w3.org/2000/svg" xmlns:xlink="http://www.w3.org/1999/xlink" width="1921.001" height="1282" viewBox="0 0 1921.001 1282">
  <defs>
    <clipPath id="clip-path">
      <rect id="Rectangle_132" data-name="Rectangle 132" width="1921" height="1282" transform="translate(0.001 -0.253)"/>
    </clipPath>
    <linearGradient id="linear-gradient" x1="0.986" y1="-2.107" x2="0.161" y2="1.469" gradientUnits="objectBoundingBox">
      <stop offset="0" stop-opacity="0"/>
      <stop offset="0.221" stop-color="#020004" stop-opacity="0.22"/>
      <stop offset="0.419" stop-color="#06010f" stop-opacity="0.42"/>
      <stop offset="0.609" stop-color="#0e0221" stop-opacity="0.608"/>
      <stop offset="0.794" stop-color="#19043b" stop-opacity="0.796"/>
      <stop offset="0.974" stop-color="#27065c" stop-opacity="0.973"/>
      <stop offset="1" stop-color="#290661"/>
    </linearGradient>
    <linearGradient id="linear-gradient-2" x1="0.887" y1="-1.843" x2="0.224" y2="1.313" xlink:href="#linear-gradient"/>
    <linearGradient id="linear-gradient-3" x1="1.389" y1="-1.498" x2="0.41" y2="2.391" xlink:href="#linear-gradient"/>
    <linearGradient id="linear-gradient-4" x1="1.299" y1="-1.635" x2="0.393" y2="2.303" xlink:href="#linear-gradient"/>
    <!-- <linearGradient id="linear-gradient-5" x1="0.722" y1="-0.325" x2="0.279" y2="1.29" gradientUnits="objectBoundingBox">
      <stop offset="0" stop-opacity="1"/>
      <stop offset="0.018" stop-color="#000205" stop-opacity="0.02"/>
      <stop offset="0.164" stop-color="#00142d" stop-opacity="0.165"/>
      <stop offset="0.315" stop-color="#00224d" stop-opacity="0.314"/>
      <stop offset="0.471" stop-color="#002e66" stop-opacity="0.471"/>
      <stop offset="0.632" stop-color="#003678" stop-opacity="0.631"/>
      <stop offset="0.803" stop-color="#003a83" stop-opacity="0.804"/>
      <stop offset="1" stop-color="#003c86"/>
    </linearGradient> -->
    <linearGradient id="linear-gradient-6" x1="0.87" y1="-0.051" x2="0.131" y2="1.05" xlink:href="#linear-gradient-5"/>
    <clipPath id="clip-path-10">
      <rect id="Rectangle_143" data-name="Rectangle 143" width="1921" height="1282" transform="translate(0 -0.254)"/>
    </clipPath>
    <clipPath id="clip-path-11">
      <rect id="Rectangle_144" data-name="Rectangle 144" width="1921" height="1282" transform="translate(0 -0.253)"/>
    </clipPath>
    <clipPath id="clip-path-12">
      <rect id="Rectangle_145" data-name="Rectangle 145" width="1921" height="1282" transform="translate(-0.001 -0.253)"/>
    </clipPath>
    <clipPath id="clip-path-13">
      <rect id="Rectangle_146" data-name="Rectangle 146" width="1921" height="1282" transform="translate(0.001 -0.254)"/>
    </clipPath>
  </defs>
  <g id="OBJECTS" transform="translate(0 0.254)">
    <g id="Group_1364" data-name="Group 1364" transform="translate(0 0)">
      <g id="Group_1340" data-name="Group 1340" transform="translate(0 0)" clip-path="url(#clip-path)">
        <path id="Path_3879" data-name="Path 3879" d="M-5.2-5.5V555.335c77.595,11.012,157.751,6.914,234.321-9.475,129.325-27.4,249.687-87.582,360.573-159.543C744.116,286.185,886.758,159.933,1063.2,107.179c86.3-25.865,178.238-33.035,260.7-69.4a309.363,309.363,0,0,0,70.168-43.023H-5.2Z" transform="translate(-8.824 -8.469)" fill="url(#linear-gradient)"/>
      </g>
      <g id="Group_1341" data-name="Group 1341" transform="translate(0 0)" clip-path="url(#clip-path)">
        <path id="Path_3880" data-name="Path 3880" d="M-5.2-5.344V349.339a323.556,323.556,0,0,0,88.095,61.205c84,39.694,182.079,44.559,272.991,25.353C446.8,416.434,531.562,374.18,609.669,323.474,718.251,253.05,818.894,164.187,943.1,126.8c60.693-18.182,125.484-23.3,183.616-48.913,38.669-16.9,74.778-46.608,93.216-83.485H-5.2Z" transform="translate(-8.824 -8.625)" fill="url(#linear-gradient-2)"/>
      </g>
      <g id="Group_1342" data-name="Group 1342" transform="translate(0 0)" clip-path="url(#clip-path)">
        <path id="Path_3881" data-name="Path 3881" d="M1712.712,235.1A984.707,984.707,0,0,0,1603.106,252c-172.092,36.621-332.4,116.52-479.911,212.3C917.813,597.722,727.539,765.716,492.961,835.885c-114.728,34.316-237.138,44.047-347,92.448-.768.256-1.793.768-2.561,1.024H1712.712V235.1Z" transform="translate(223.124 367.081)" fill="url(#linear-gradient-3)"/>
      </g>
      <g id="Group_1343" data-name="Group 1343" transform="translate(0 0)" clip-path="url(#clip-path)">
        <path id="Path_3882" data-name="Path 3882" d="M1632.795,281.553c-75.29-6.4-151.861-.512-225.87,15.109-145.971,30.987-282.21,98.85-407.437,180.286-174.4,113.191-335.732,255.833-534.97,315.5C375.655,819.083,281.158,828.3,194.6,860.826H1632.539V281.553Z" transform="translate(303.042 435.612)" fill="url(#linear-gradient-4)"/>
      </g>
      <g id="Group_1353" data-name="Group 1353" transform="translate(0 0)" clip-path="url(#clip-path)">
        <g id="Group_1352" data-name="Group 1352" transform="translate(2.953 4.355)">
          <path id="Path_3885" data-name="Path 3885" d="M2.635,595.64c47.633,12.548,96.033,20.743,145.2,21.768,47.12,1.024,94.5-4.866,140.337-15.622,47.12-11.012,91.936-27.914,136.5-46.352a1044.013,1044.013,0,0,0,117.8-57.62c77.083-44.047,148.019-97.826,212.81-158.263,8.195-7.683,16.39-15.621,24.584-23.56,8.963-8.963,18.951-16.646,28.938-24.585,4.61-3.585,8.963-7.17,13.317-10.756,4.1-3.329,6.4-6.658,9.475-11.012,4.1-5.378,10.244-9.475,15.365-13.829s9.987-8.451,15.109-12.8q56.852-48.4,114.472-95.521c19.463-15.621,40.206-29.194,61.717-41.742,21.255-12.548,43.023-25.353,64.79-36.877,43.791-23.56,91.68-38.157,138.8-52.754,12.036-3.585,23.816-7.427,35.6-11.268,2.049-.512,1.024-3.841-.768-3.073-47.376,15.109-95.265,28.426-141.1,47.889a523.862,523.862,0,0,0-61.717,32.267c-20.743,12.292-42.255,23.816-62.742,36.877-20.231,13.061-38.669,28.17-57.364,43.535s-37.389,30.987-56.083,46.608c-19.207,16.134-38.413,32.523-57.62,48.913-3.841,3.329-7.939,6.4-11.012,10.5-1.793,2.3-3.073,5.122-5.122,7.171-2.3,2.3-5.122,4.1-7.683,6.146-9.987,7.939-20.231,15.621-29.706,23.816-8.707,7.427-16.39,15.877-24.584,23.816-8.195,7.683-16.39,15.365-24.841,23.048-16.646,15.109-33.548,29.45-50.962,43.535a1127.718,1127.718,0,0,1-108.582,77.595,1001.688,1001.688,0,0,1-116.52,63c-43.023,19.719-87.07,37.9-132.4,51.474-46.352,13.829-93.985,23.3-142.385,25.865A558.007,558.007,0,0,1,39,601.53c-12.036-2.561-23.816-5.634-35.6-8.707-2.049-.768-2.817,2.3-.768,2.817Z" transform="translate(-1.429 -1.655)" fill="url(#linear-gradient-5)"/>
        </g>
      </g>
      <g id="Group_1355" data-name="Group 1355" transform="translate(0 0)" clip-path="url(#clip-path)">
        <g id="Group_1354" data-name="Group 1354" transform="translate(1754.919 1086.194)">
          <path id="Path_3886" data-name="Path 3886" d="M848.033,424.609c-21.768,25.1-42,51.218-63,77.083-9.987,12.548-19.975,25.609-31.243,37.133s-22.024,23.3-32.523,35.6c-12.036,13.573-23.56,27.658-35.34,41.487-1.28,1.536,1.024,3.841,2.3,2.3,20.743-24.585,41.23-49.425,63.51-72.729,22.536-23.3,42-49.681,62.229-74.778q17.67-22.28,36.109-43.791c1.537-1.536-.768-3.841-2.049-2.3Z" transform="translate(-685.553 -424.102)" fill="url(#linear-gradient-6)"/>
        </g>
      </g>
      <g id="Group_1359" data-name="Group 1359" transform="translate(0.001 0)" clip-path="url(#clip-path-10)">
        <path id="Path_3888" data-name="Path 3888" d="M96.8,0,44.619,52.182,0,96.8" transform="translate(459.296 184.309)" fill="none" stroke="#d63384" stroke-linecap="round" stroke-width="5"/>
      </g>
      <g id="Group_1360" data-name="Group 1360" transform="translate(0 0)" clip-path="url(#clip-path-11)">
        <line id="Line_24" data-name="Line 24" x1="99.106" y2="99.106" transform="translate(1458.444 1028.342)" fill="none" stroke="#d63384" stroke-linecap="round" stroke-miterlimit="10" stroke-width="5"/>
      </g>
      <g id="Group_1361" data-name="Group 1361" transform="translate(0.001 0)" clip-path="url(#clip-path-12)">
        <line id="Line_25" data-name="Line 25" x1="96.289" y2="96.033" transform="translate(423.519 1043.765)" fill="none" stroke="#fff" stroke-linecap="round" stroke-miterlimit="10" stroke-width="5"/>
      </g>
      <g id="Group_1362" data-name="Group 1362" transform="translate(0 0)" clip-path="url(#clip-path-13)">
        <path id="Path_3889" data-name="Path 3889" d="M96.289,0l-50.4,50.267L0,96.033" transform="translate(1375.689 140.341)" fill="none" stroke="#fff" stroke-linecap="round" stroke-width="6"/>
      </g>
    </g>
  </g>
</svg>
